<svg width="317" height="649" viewBox="0 0 317 649" fill="none" xmlns="http://www.w3.org/2000/svg">
<path fill-rule="evenodd" clip-rule="evenodd" d="M266.469 1.5H50.5312C24.85 1.5 4.03125 22.3188 4.03125 48V600.594C4.03125 626.275 24.85 647.094 50.5312 647.094H266.469C292.15 647.094 312.969 626.275 312.969 600.594V48C312.969 22.3188 292.15 1.5 266.469 1.5ZM50.5312 0C24.0216 0 2.53125 21.4904 2.53125 48V600.594C2.53125 627.104 24.0215 648.594 50.5312 648.594H266.469C292.978 648.594 314.469 627.104 314.469 600.594V48C314.469 21.4903 292.978 0 266.469 0H50.5312Z" fill="white"/>
<path fill-rule="evenodd" clip-rule="evenodd" d="M182.631 19.1571H134.369C129.347 19.1571 125.275 23.2287 125.275 28.2512C125.275 33.2737 129.347 37.3453 134.369 37.3453H182.631C187.654 37.3453 191.726 33.2737 191.726 28.2512C191.726 23.2287 187.654 19.1571 182.631 19.1571ZM134.369 17.6571C128.519 17.6571 123.775 22.4002 123.775 28.2512C123.775 34.1022 128.519 38.8453 134.369 38.8453H182.631C188.482 38.8453 193.226 34.1022 193.226 28.2512C193.226 22.4002 188.482 17.6571 182.631 17.6571H134.369Z" fill="white"/>
<path d="M0 110.649H3.53137V134.192H0V110.649Z" fill="white"/>
<path d="M0 154.203H3.53137V196.58H0V154.203Z" fill="white"/>
<path d="M0 214.236H3.53137V256.613H0V214.236Z" fill="white"/>
<path d="M313.469 188.339H317V253.081H313.469V188.339Z" fill="white"/>
</svg>
