<svg width="82" height="51" viewBox="0 0 82 51" fill="none" xmlns="http://www.w3.org/2000/svg">
<g clip-path="url(#clip0_226_493447)">
<path d="M51.4384 0.00195312L30.9573 13.4655L19.1794 5.72282L0 18.3307V51.0008H74.3867V15.0865L51.4384 0.00195312ZM19.1794 15.1378L28.4901 21.2572V43.1676H7.9445V22.5211L19.1794 15.1378ZM36.4346 43.1676V19.2793L51.4384 9.41693L66.4422 19.2793V43.1676H36.4346Z" fill="white"/>
<path d="M79.1298 50.9997C78.6663 50.9997 78.2563 50.9218 77.8962 50.7661C77.5361 50.6103 77.2366 50.398 76.9942 50.129C76.7518 49.8635 76.5699 49.5627 76.4452 49.2335C76.3204 48.9043 76.2598 48.5681 76.2598 48.2283V48.0867C76.2598 47.7398 76.3204 47.4036 76.4452 47.0744C76.5699 46.7488 76.7553 46.4515 77.0049 46.1896C77.2545 45.9276 77.5575 45.7188 77.9105 45.5631C78.267 45.4109 78.6734 45.333 79.1298 45.333C79.5861 45.333 80.0032 45.4109 80.3526 45.5631C80.7056 45.7153 81.0051 45.9241 81.2546 46.1896C81.5042 46.4515 81.6896 46.7488 81.8144 47.0744C81.9392 47.4 81.9998 47.7398 81.9998 48.0867V48.2283C81.9998 48.5681 81.9392 48.9043 81.8144 49.2335C81.6896 49.5627 81.5078 49.8635 81.2653 50.129C81.0229 50.3944 80.7234 50.6068 80.3633 50.7661C80.0032 50.9218 79.5932 50.9997 79.1298 50.9997ZM79.1298 50.5572C79.6253 50.5572 80.0567 50.4475 80.4133 50.2281C80.7733 50.0086 81.0479 49.7184 81.2404 49.3574C81.4329 48.9963 81.5292 48.5999 81.5292 48.1681C81.5292 47.7363 81.4329 47.3257 81.2404 46.9612C81.0479 46.5966 80.7733 46.3099 80.4133 46.094C80.0532 45.8816 79.6253 45.7754 79.1298 45.7754C78.6342 45.7754 78.2064 45.8816 77.8499 46.094C77.4933 46.3064 77.2188 46.5966 77.0227 46.9612C76.8266 47.3257 76.7304 47.7257 76.7304 48.1681C76.7304 48.6105 76.8266 48.9999 77.0227 49.3574C77.2188 49.7184 77.4933 50.0086 77.8499 50.2281C78.2064 50.4475 78.6342 50.5572 79.1298 50.5572ZM78.0887 49.637V46.586H78.5629V49.637H78.0887ZM78.3205 48.5681V48.1469H79.1583C79.3793 48.1469 79.5433 48.1009 79.6539 48.0053C79.7608 47.9133 79.8143 47.7682 79.8143 47.5735C79.8143 47.3788 79.7608 47.2372 79.6539 47.1487C79.5469 47.0603 79.3829 47.0142 79.1583 47.0142H78.3205V46.5824H79.1084C79.4792 46.5824 79.7679 46.6709 79.9819 46.8444C80.1922 47.0178 80.2992 47.262 80.2992 47.5735C80.2992 47.885 80.1922 48.1221 79.9819 48.2991C79.7715 48.476 79.4792 48.5645 79.1084 48.5645H78.3205V48.5681ZM79.9462 49.637L78.9372 48.4159H79.4827L80.5095 49.637H79.9462Z" fill="white"/>
</g>
<defs>
<clipPath id="clip0_226_493447">
<rect width="82" height="51" fill="white"/>
</clipPath>
</defs>
</svg>
