<svg xmlns="http://www.w3.org/2000/svg" version="1.0" width="776.000000pt" height="312.000000pt" viewBox="0 0 776.000000 312.000000" preserveAspectRatio="xMidYMid meet">
  <g transform="translate(0.000000,312.000000) scale(0.100000,-0.100000)" fill="#074635" stroke="none">

    <path d="M2671 2132 c-53 -27 -75 -64 -75 -126 0 -43 5 -61 27 -89 68 -90 216 -64 248 43 38 125 -86 231 -200 172z" fill="#fff"/>
    <path d="M7305 2136 c-53 -24 -78 -60 -83 -118 -3 -44 0 -59 20 -88 61 -91 196 -90 244 1 19 38 20 108 2 145 -29 60 -119 90 -183 60z" fill="#fff"/>
    <path d="M6297 2113 c-11 -10 -8 -731 3 -808 32 -218 197 -355 430 -355 218 0 370 106 425 294 36 125 9 271 -72 389 -38 55 -126 114 -206 139 -114 34 -257 13 -306 -46 -8 -9 -17 -16 -22 -16 -5 0 -9 92 -9 205 l0 205 -118 0 c-65 0 -122 -3 -125 -7z m529 -572 c23 -10 52 -34 65 -52 21 -30 24 -45 24 -121 0 -99 -13 -126 -81 -166 -33 -19 -51 -22 -116 -20 -86 3 -118 20 -153 79 -28 48 -28 160 1 214 41 78 164 109 260 66z" fill="#fff"/>
    <path d="M3293 1775 c-166 -45 -269 -169 -293 -350 -6 -44 -10 -168 -8 -275 l3 -195 122 -3 122 -3 3 243 c3 213 5 248 22 281 30 61 69 82 153 82 81 0 113 -16 148 -76 18 -31 20 -55 23 -281 l3 -248 125 0 124 0 0 228 c0 307 -16 378 -108 482 -95 108 -282 157 -439 115z" fill="#fff"/>
    <path d="M4197 1766 c-81 -29 -143 -77 -185 -143 -54 -84 -62 -138 -62 -420 l0 -254 123 3 122 3 5 260 c5 237 7 263 25 289 53 78 188 72 242 -11 16 -24 18 -57 21 -285 l3 -259 122 3 122 3 5 260 c5 250 6 261 28 292 44 61 157 71 213 17 16 -15 34 -44 39 -63 5 -20 10 -143 10 -274 l0 -238 123 3 122 3 3 210 c4 321 -16 420 -106 512 -95 97 -256 137 -392 97 -41 -12 -67 -29 -111 -73 l-57 -58 -35 41 c-19 23 -58 54 -88 71 -45 24 -68 30 -139 32 -71 3 -96 0 -153 -21z" fill="#fff"/>
    <path d="M5655 1776 c-203 -51 -327 -223 -312 -436 12 -171 105 -303 255 -361 71 -28 230 -38 300 -19 128 35 223 110 274 216 99 208 22 465 -168 562 -96 49 -241 65 -349 38z m197 -226 c74 -21 125 -111 115 -207 -11 -106 -78 -163 -193 -163 -115 0 -184 72 -184 191 0 141 115 220 262 179z" fill="#fff"/>
    <path d="M2612 1368 l3 -413 123 -3 122 -3 0 416 0 415 -125 0 -125 0 2 -412z" fill="#fff"/>
    <path d="M7240 1365 l0 -416 123 3 122 3 3 413 2 412 -125 0 -125 0 0 -415z" fill="#fff"/>
  </g> 
</svg>