<svg width="56" height="44" viewBox="0 0 56 44" fill="none" xmlns="http://www.w3.org/2000/svg">
<g clip-path="url(#clip0_342_110923)">
<path d="M28 16.4415C30.1361 16.4415 30.3891 16.4496 31.2327 16.4881C32.0126 16.5237 32.4362 16.654 32.7182 16.7635C33.0916 16.9087 33.3581 17.0821 33.638 17.362C33.9179 17.6419 34.0913 17.9084 34.2364 18.2818C34.346 18.5638 34.4763 18.9874 34.5119 19.7673C34.5504 20.6109 34.5585 20.8639 34.5585 23C34.5585 25.1361 34.5504 25.3891 34.5119 26.2327C34.4763 27.0127 34.346 27.4363 34.2364 27.7182C34.0913 28.0916 33.9179 28.3581 33.638 28.638C33.3581 28.918 33.0916 29.0914 32.7182 29.2365C32.4362 29.346 32.0126 29.4763 31.2327 29.5119C30.3892 29.5504 30.1362 29.5586 28 29.5586C25.8638 29.5586 25.6108 29.5504 24.7673 29.5119C23.9873 29.4763 23.5637 29.346 23.2818 29.2365C22.9084 29.0914 22.6419 28.918 22.362 28.638C22.082 28.3581 21.9086 28.0916 21.7635 27.7182C21.654 27.4363 21.5237 27.0127 21.4881 26.2327C21.4496 25.3891 21.4414 25.1361 21.4414 23C21.4414 20.8639 21.4496 20.6109 21.4881 19.7673C21.5237 18.9874 21.654 18.5638 21.7635 18.2818C21.9086 17.9084 22.082 17.6419 22.362 17.362C22.6419 17.0821 22.9084 16.9087 23.2818 16.7635C23.5637 16.654 23.9873 16.5237 24.7673 16.4881C25.6109 16.4496 25.8639 16.4415 28 16.4415ZM28 15C25.8273 15 25.5549 15.0092 24.7016 15.0481C23.8501 15.087 23.2686 15.2222 22.7597 15.42C22.2336 15.6245 21.7875 15.898 21.3427 16.3427C20.898 16.7875 20.6244 17.2336 20.42 17.7597C20.2222 18.2686 20.087 18.8501 20.0481 19.7016C20.0092 20.5549 20 20.8273 20 23C20 25.1727 20.0092 25.4451 20.0481 26.2984C20.087 27.1499 20.2222 27.7314 20.42 28.2403C20.6244 28.7664 20.898 29.2125 21.3427 29.6573C21.7875 30.102 22.2336 30.3756 22.7597 30.58C23.2686 30.7778 23.8501 30.913 24.7016 30.9519C25.5549 30.9908 25.8273 31 28 31C30.1727 31 30.4451 30.9908 31.2984 30.9519C32.1499 30.913 32.7314 30.7778 33.2403 30.58C33.7664 30.3756 34.2125 30.102 34.6573 29.6573C35.102 29.2125 35.3755 28.7664 35.58 28.2403C35.7778 27.7314 35.913 27.1499 35.9519 26.2984C35.9908 25.4451 36 25.1727 36 23C36 20.8273 35.9908 20.5549 35.9519 19.7016C35.913 18.8501 35.7778 18.2686 35.58 17.7597C35.3755 17.2336 35.102 16.7875 34.6573 16.3427C34.2125 15.898 33.7664 15.6245 33.2403 15.42C32.7314 15.2222 32.1499 15.087 31.2984 15.0481C30.4451 15.0092 30.1727 15 28 15ZM28 18.8919C25.7311 18.8919 23.8919 20.7312 23.8919 23C23.8919 25.2689 25.7311 27.1081 28 27.1081C30.2688 27.1081 32.1081 25.2689 32.1081 23C32.1081 20.7312 30.2688 18.8919 28 18.8919ZM28 25.6667C26.5272 25.6667 25.3333 24.4728 25.3333 23C25.3333 21.5273 26.5272 20.3333 28 20.3333C29.4727 20.3333 30.6667 21.5273 30.6667 23C30.6667 24.4728 29.4727 25.6667 28 25.6667ZM33.2304 18.7296C33.2304 19.2598 32.8006 19.6896 32.2704 19.6896C31.7402 19.6896 31.3104 19.2598 31.3104 18.7296C31.3104 18.1994 31.7402 17.7696 32.2704 17.7696C32.8006 17.7696 33.2304 18.1994 33.2304 18.7296Z" fill="#2B2B2B"/>
</g>
<defs>
<clipPath id="clip0_342_110923">
<rect width="16" height="16" fill="white" transform="translate(20 15)"/>
</clipPath>
</defs>
</svg>
