<svg width="56" height="44" viewBox="0 0 56 44" fill="none" xmlns="http://www.w3.org/2000/svg">
<g clip-path="url(#clip0_342_110933)">
<path d="M19 14.16C19 12.96 19.96 12 21.16 12C22.36 12 23.32 12.96 23.32 14.16C23.32 15.36 22.36 16.3371 21.16 16.3371C19.96 16.3371 19 15.36 19 14.16ZM19.2914 30V17.9829H23.0286V30H19.2914ZM33.28 30V24.1543C33.28 22.7657 33.2457 20.9657 31.3429 20.9657C29.44 20.9657 29.0971 22.4743 29.0971 24.0514V30H25.3771V17.9829H28.96V19.6286H29.0114C29.5086 18.6857 30.7257 17.6914 32.5429 17.6914C36.3143 17.6914 37.0171 20.1771 37.0171 23.4171V30.0171H33.2971L33.28 30Z" fill="black"/>
</g>
<defs>
<clipPath id="clip0_342_110933">
<rect width="18" height="18" fill="white" transform="translate(19 12)"/>
</clipPath>
</defs>
</svg>
